<svg width="26" height="14" viewBox="0 0 26 14" fill="none" xmlns="http://www.w3.org/2000/svg">
<path d="M21.8291 3.96802H19.8154C19.1425 2.98002 18.2472 2.15411 17.2042 1.56508C16.0362 0.90547 14.7099 0.556885 13.3687 0.556885H12.8004C12.3882 0.556885 12.0541 0.891021 12.0541 1.3032V3.96802H3.77183C1.95336 3.96802 0.446468 5.32366 0.206175 7.07717C0.203478 7.09411 0.201165 7.11105 0.199624 7.12843C0.182088 7.27277 0.171875 7.41918 0.171875 7.56813V10.4218C0.171875 10.8339 0.506011 11.1681 0.918186 11.1681H3.52943C3.86144 12.4507 5.0286 13.4005 6.41352 13.4005C7.79842 13.4005 8.9656 12.4507 9.29758 11.1681H16.3033C16.6355 12.4507 17.8025 13.4005 19.1874 13.4005C20.5723 13.4005 21.7392 12.4507 22.0715 11.1681H24.6827C25.0949 11.1681 25.429 10.8339 25.429 10.4218V7.56813C25.429 5.58299 23.814 3.96802 21.8291 3.96802ZM13.5468 2.05219C15.1962 2.09943 16.7608 2.80292 17.8956 3.96802H13.5468V2.05219ZM1.66451 7.93852H2.81722C3.22939 7.93852 3.56353 7.60438 3.56353 7.19217C3.56353 6.78003 3.22939 6.44589 2.81722 6.44589H1.98958C2.36322 5.8545 3.02225 5.46079 3.77183 5.46079H12.0541V9.67546H9.29758C8.96537 8.39292 7.79842 7.44288 6.41352 7.44288C5.0286 7.44288 3.86163 8.39292 3.52943 9.67546H1.66451V7.93852ZM7.8996 10.4218C7.8996 11.2413 7.23303 11.9079 6.41352 11.9079C5.59397 11.9079 4.92744 11.2413 4.92744 10.4218C4.92744 9.60229 5.59397 8.93573 6.41352 8.93573C7.23303 8.93573 7.8996 9.60229 7.8996 10.4218ZM20.6735 10.4218C20.6735 11.2413 20.0069 11.9079 19.1874 11.9079C18.3679 11.9079 17.7013 11.2413 17.7013 10.4218C17.7013 9.60229 18.3679 8.93573 19.1874 8.93573C20.0069 8.93573 20.6735 9.60229 20.6735 10.4218ZM22.0715 9.67546C21.7395 8.39292 20.5723 7.44288 19.1874 7.44288C17.8025 7.44288 16.6353 8.39292 16.3033 9.67546H13.5468V5.46079H21.8291C22.5654 5.46079 23.2146 5.84084 23.5915 6.41469H22.4364C22.0243 6.41469 21.6901 6.74883 21.6901 7.16097C21.6901 7.57318 22.0243 7.90746 22.4364 7.90746H23.9364V9.67546H22.0715Z" fill="#050B20"/>
</svg>
