<svg width="26" height="12" viewBox="0 0 26 12" fill="none" xmlns="http://www.w3.org/2000/svg">
<path d="M23.2402 4.92054L18.8802 4.1935C18.6252 3.77944 18.1185 3.03041 17.3816 2.27998C15.9109 0.782156 14.2176 -0.00952148 12.4848 -0.00952148H5.38448C4.23114 -0.00952148 3.16181 0.614063 2.59377 1.61787L0.637178 5.07572C0.634021 5.08129 0.631653 5.08709 0.628644 5.09273C0.477299 5.36358 0.390625 5.67528 0.390625 6.00704V9.65068C0.390625 10.0593 0.721927 10.3906 1.13058 10.3906H3.50046C3.84829 11.3007 4.73485 11.9495 5.77143 11.9495C6.80801 11.9495 7.69455 11.3007 8.04243 10.3906H17.2327C17.5805 11.3007 18.467 11.9495 19.5036 11.9495C20.5402 11.9495 21.4267 11.3007 21.7745 10.3906H24.9078C25.3165 10.3906 25.6478 10.0593 25.6478 9.65068V7.69177C25.6478 6.30367 24.6135 5.11435 23.2402 4.92054ZM17.0288 4.12635H11.6984V1.47041H12.4848C14.5822 1.47041 16.1662 3.02098 17.0288 4.12635ZM6.75967 1.47041H10.2186V4.12635H6.75967V1.47041ZM3.88179 2.34669C4.17036 1.83672 4.69929 1.50934 5.27975 1.47398V4.12635H2.87475L3.88179 2.34669ZM5.77143 10.4696C5.24838 10.4696 4.82286 10.0512 4.82286 9.53688C4.82286 9.0226 5.24838 8.60415 5.77143 8.60415C6.29448 8.60415 6.72001 9.0226 6.72001 9.53688C6.72001 10.0512 6.29448 10.4696 5.77143 10.4696ZM19.5036 10.4696C18.9805 10.4696 18.555 10.0512 18.555 9.53688C18.555 9.0226 18.9806 8.60415 19.5036 8.60415C20.0266 8.60415 20.4522 9.0226 20.4522 9.53688C20.4522 10.0512 20.0266 10.4696 19.5036 10.4696ZM21.8486 8.91065C21.5703 7.88305 20.6246 7.12423 19.5036 7.12423C18.3825 7.12423 17.4369 7.88305 17.1585 8.91065H8.11641C7.83814 7.88305 6.89251 7.12423 5.77143 7.12423C4.65035 7.12423 3.70473 7.88305 3.42636 8.91065H1.87054V6.00704C1.87054 5.78604 2.05029 5.60627 2.27129 5.60627H18.3551L23.0065 6.38196C23.0137 6.38315 23.0208 6.38426 23.028 6.38523C23.1538 6.40247 23.2736 6.4376 23.3851 6.48752C23.0756 6.57607 22.8487 6.86051 22.8487 7.19851C22.8487 7.60716 23.18 7.93847 23.5886 7.93847H24.1678V8.91072L21.8486 8.91065Z" fill="#050B20"/>
</svg>
